<svg width="888" height="178" viewBox="0 0 888 178" fill="none" xmlns="http://www.w3.org/2000/svg">
<path d="M212.411 144.273V24.3577H287.593V39.9327H230.504V76.4696H283.67V91.986H230.504V128.699H288.295V144.273H212.411Z" fill="#4B57B9"/>
<path d="M336.528 146.264C330.829 146.264 325.676 145.21 321.07 143.102C316.464 140.956 312.814 137.852 310.121 133.793C307.466 129.733 306.139 124.756 306.139 118.862C306.139 113.787 307.115 109.61 309.067 106.331C311.019 103.052 313.653 100.457 316.971 98.5439C320.289 96.6312 323.998 95.1869 328.096 94.211C332.195 93.2351 336.372 92.4935 340.627 91.986C346.014 91.3615 350.386 90.854 353.743 90.4636C357.1 90.0343 359.539 89.3512 361.062 88.4143C362.584 87.4775 363.345 85.9551 363.345 83.8472V83.4373C363.345 78.3237 361.901 74.3617 359.012 71.5511C356.163 68.7406 351.908 67.3354 346.248 67.3354C340.353 67.3354 335.708 68.643 332.312 71.2584C328.955 73.8347 326.633 76.7038 325.344 79.8656L308.891 76.1183C310.843 70.6533 313.693 66.2424 317.44 62.8854C321.226 59.4893 325.579 57.0301 330.497 55.5077C335.416 53.9463 340.588 53.1656 346.014 53.1656C349.605 53.1656 353.411 53.595 357.431 54.4538C361.491 55.2735 365.277 56.7959 368.791 59.0209C372.343 61.2459 375.251 64.4272 377.515 68.565C379.779 72.6637 380.911 77.9919 380.911 84.5498V144.273H363.814V131.977H363.111C361.979 134.241 360.281 136.466 358.017 138.652C355.753 140.838 352.845 142.654 349.293 144.098C345.74 145.542 341.486 146.264 336.528 146.264ZM340.334 132.212C345.174 132.212 349.312 131.255 352.747 129.343C356.221 127.43 358.856 124.932 360.652 121.848C362.486 118.725 363.404 115.388 363.404 111.835V100.242C362.779 100.866 361.569 101.452 359.773 101.999C358.017 102.506 356.007 102.955 353.743 103.345C351.479 103.697 349.273 104.028 347.126 104.341C344.979 104.614 343.184 104.848 341.739 105.043C338.343 105.473 335.24 106.195 332.429 107.21C329.658 108.225 327.433 109.688 325.754 111.601C324.115 113.475 323.295 115.973 323.295 119.096C323.295 123.429 324.896 126.708 328.096 128.933C331.297 131.119 335.377 132.212 340.334 132.212Z" fill="#4B57B9"/>
<path d="M471.624 76.2939L455.756 79.1044C455.092 77.0746 454.038 75.1424 452.594 73.3077C451.189 71.4731 449.276 69.9702 446.856 68.7992C444.436 67.6281 441.41 67.0426 437.78 67.0426C432.823 67.0426 428.685 68.1551 425.367 70.3801C422.049 72.5661 420.39 75.3961 420.39 78.8702C420.39 81.8759 421.503 84.2961 423.728 86.1307C425.953 87.9654 429.544 89.4682 434.501 90.6393L448.788 93.9182C457.064 95.831 463.231 98.7781 467.291 102.76C471.35 106.741 473.38 111.913 473.38 118.276C473.38 123.663 471.819 128.464 468.696 132.68C465.612 136.857 461.299 140.136 455.756 142.517C450.252 144.898 443.87 146.089 436.609 146.089C426.538 146.089 418.321 143.942 411.958 139.648C405.596 135.315 401.692 129.167 400.248 121.204L417.17 118.627C418.224 123.038 420.39 126.376 423.669 128.64C426.948 130.865 431.222 131.977 436.492 131.977C442.23 131.977 446.817 130.787 450.252 128.406C453.687 125.986 455.405 123.038 455.405 119.564C455.405 116.754 454.351 114.392 452.243 112.479C450.174 110.567 446.992 109.122 442.699 108.147L427.475 104.809C419.082 102.896 412.876 99.8516 408.855 95.6748C404.874 91.4981 402.883 86.2088 402.883 79.8071C402.883 74.4983 404.366 69.8531 407.333 65.8715C410.299 61.89 414.398 58.7867 419.629 56.5617C424.86 54.2976 430.851 53.1656 437.605 53.1656C447.324 53.1656 454.975 55.2735 460.557 59.4893C466.139 63.6661 469.828 69.2676 471.624 76.2939Z" fill="#4B57B9"/>
<path d="M531.391 146.089C522.53 146.089 514.899 144.195 508.497 140.409C502.134 136.584 497.216 131.216 493.742 124.307C490.307 117.359 488.589 109.22 488.589 99.8906C488.589 90.6783 490.307 82.559 493.742 75.5327C497.216 68.5064 502.056 63.022 508.263 59.0794C514.509 55.1369 521.808 53.1656 530.162 53.1656C535.236 53.1656 540.155 54.0049 544.917 55.6834C549.679 57.3619 553.953 59.9968 557.74 63.588C561.526 67.1792 564.512 71.8439 566.698 77.5821C568.884 83.2812 569.977 90.2099 569.977 98.3682V104.575H498.485V91.459H552.821C552.821 86.8529 551.885 82.7737 550.011 79.2215C548.137 75.6303 545.502 72.8003 542.106 70.7314C538.749 68.6626 534.807 67.6281 530.279 67.6281C525.36 67.6281 521.066 68.8382 517.397 71.2584C513.767 73.6395 510.956 76.7623 508.966 80.6268C507.014 84.4522 506.038 88.6095 506.038 93.0985V103.345C506.038 109.357 507.092 114.47 509.2 118.686C511.347 122.902 514.333 126.122 518.158 128.347C521.984 130.533 526.453 131.626 531.567 131.626C534.885 131.626 537.91 131.158 540.643 130.221C543.375 129.245 545.737 127.801 547.727 125.888C549.718 123.975 551.241 121.614 552.294 118.803L568.865 121.789C567.538 126.669 565.157 130.943 561.721 134.612C558.325 138.243 554.051 141.073 548.898 143.102C543.785 145.093 537.949 146.089 531.391 146.089Z" fill="#4B57B9"/>
<path d="M694.973 84.3156C694.973 97.1191 692.63 108.127 687.946 117.339C683.262 126.513 676.841 133.578 668.682 138.535C660.563 143.454 651.331 145.913 640.987 145.913C630.604 145.913 621.333 143.454 613.175 138.535C605.055 133.578 598.654 126.493 593.969 117.281C589.285 108.068 586.943 97.0801 586.943 84.3156C586.943 71.5121 589.285 60.5237 593.969 51.3505C598.654 42.1382 605.055 35.0729 613.175 30.1544C621.333 25.197 630.604 22.7183 640.987 22.7183C651.331 22.7183 660.563 25.197 668.682 30.1544C676.841 35.0729 683.262 42.1382 687.946 51.3505C692.63 60.5237 694.973 71.5121 694.973 84.3156ZM677.055 84.3156C677.055 74.5569 675.475 66.34 672.313 59.665C669.19 52.9509 664.896 47.8764 659.431 44.4413C654.005 40.9672 647.857 39.2301 640.987 39.2301C634.078 39.2301 627.91 40.9672 622.484 44.4413C617.059 47.8764 612.765 52.9509 609.603 59.665C606.48 66.34 604.919 74.5569 604.919 84.3156C604.919 94.0744 606.48 102.311 609.603 109.025C612.765 115.7 617.059 120.774 622.484 124.249C627.91 127.684 634.078 129.401 640.987 129.401C647.857 129.401 654.005 127.684 659.431 124.249C664.896 120.774 669.19 115.7 672.313 109.025C675.475 102.311 677.055 94.0744 677.055 84.3156Z" fill="#4B57B9"/>
<path d="M716.125 178V54.3367H733.222V68.9163H734.686C735.701 67.0426 737.165 64.8761 739.077 62.4169C740.99 59.9577 743.644 57.8108 747.041 55.9762C750.437 54.1025 754.926 53.1656 760.508 53.1656C767.768 53.1656 774.248 55.0003 779.947 58.6696C785.646 62.3389 790.116 67.6281 793.356 74.5373C796.635 81.4465 798.274 89.761 798.274 99.4808C798.274 109.2 796.654 117.534 793.414 124.483C790.174 131.392 785.724 136.72 780.064 140.468C774.404 144.176 767.944 146.03 760.683 146.03C755.218 146.03 750.749 145.113 747.275 143.278C743.84 141.443 741.146 139.297 739.194 136.837C737.243 134.378 735.74 132.192 734.686 130.279H733.632V178H716.125ZM733.281 99.3051C733.281 105.629 734.198 111.172 736.033 115.934C737.867 120.696 740.522 124.424 743.996 127.118C747.47 129.772 751.725 131.099 756.76 131.099C761.991 131.099 766.363 129.713 769.876 126.942C773.389 124.131 776.044 120.325 777.839 115.524C779.674 110.723 780.591 105.316 780.591 99.3051C780.591 93.3718 779.693 88.0435 777.898 83.3202C776.141 78.597 773.487 74.8691 769.935 72.1367C766.421 69.4042 762.03 68.038 756.76 68.038C751.686 68.038 747.392 69.3457 743.879 71.961C740.405 74.5764 737.77 78.2261 735.974 82.9104C734.178 87.5946 733.281 93.0595 733.281 99.3051Z" fill="#4B57B9"/>
<path d="M885.283 76.2939L869.415 79.1044C868.752 77.0746 867.698 75.1424 866.254 73.3077C864.848 71.4731 862.936 69.9702 860.516 68.7992C858.095 67.6281 855.07 67.0426 851.44 67.0426C846.482 67.0426 842.345 68.1551 839.027 70.3801C835.709 72.5661 834.05 75.3961 834.05 78.8702C834.05 81.8759 835.162 84.2961 837.387 86.1307C839.612 87.9654 843.203 89.4682 848.161 90.6393L862.448 93.9182C870.723 95.831 876.891 98.7781 880.95 102.76C885.01 106.741 887.04 111.913 887.04 118.276C887.04 123.663 885.478 128.464 882.356 132.68C879.272 136.857 874.958 140.136 869.415 142.517C863.912 144.898 857.529 146.089 850.269 146.089C840.198 146.089 831.981 143.942 825.618 139.648C819.255 135.315 815.352 129.167 813.908 121.204L830.829 118.627C831.883 123.038 834.05 126.376 837.329 128.64C840.608 130.865 844.882 131.977 850.152 131.977C855.89 131.977 860.476 130.787 863.911 128.406C867.347 125.986 869.064 123.038 869.064 119.564C869.064 116.754 868.01 114.392 865.902 112.479C863.833 110.567 860.652 109.122 856.358 108.147L841.135 104.809C832.742 102.896 826.535 99.8516 822.515 95.6748C818.533 91.4981 816.542 86.2088 816.542 79.8071C816.542 74.4983 818.026 69.8531 820.992 65.8715C823.959 61.89 828.058 58.7867 833.289 56.5617C838.519 54.2976 844.511 53.1656 851.264 53.1656C860.984 53.1656 868.635 55.2735 874.217 59.4893C879.799 63.6661 883.488 69.2676 885.283 76.2939Z" fill="#4B57B9"/>
<path d="M85.8772 171.754C133.306 171.754 171.754 133.306 171.754 85.8772C171.754 38.4485 133.306 0 85.8772 0C38.4485 0 0 38.4485 0 85.8772C0 133.306 38.4485 171.754 85.8772 171.754Z" fill="#4B57B9"/>
<path d="M61.3535 78.1843L61.3672 56.2353L103.821 24.0459L106.126 27.1016C109.445 31.503 108.576 37.7604 104.184 41.0912L75.1411 63.1125L75.13 76.5596L67.6576 82.1576L61.3535 78.1843ZM75.1025 125.267L75.1135 111.723L68.757 116.484L61.3369 111.809L61.3182 142.856C61.3157 146.977 66.0203 149.332 69.3176 146.859L104.124 120.762C108.534 117.455 109.437 111.202 106.142 106.783L103.854 103.715L75.1025 125.267ZM112.098 75.0627L103.851 63.994L67.8725 90.9529L51.9881 80.9369L44.6562 92.6329L68.5421 107.694L112.098 75.0627Z" fill="white"/>
</svg>
