<svg width="16" height="16" viewBox="0 0 16 16" fill="none" xmlns="http://www.w3.org/2000/svg">
<path d="M9.9998 4.66656L5.66647 8.99989C5.40125 9.26511 5.25226 9.62482 5.25226 9.99989C5.25226 10.375 5.40125 10.7347 5.66647 10.9999C5.93169 11.2651 6.2914 11.4141 6.66647 11.4141C7.04154 11.4141 7.40125 11.2651 7.66647 10.9999L11.9998 6.66656C12.5302 6.13613 12.8282 5.41671 12.8282 4.66656C12.8282 3.91642 12.5302 3.19699 11.9998 2.66656C11.4694 2.13613 10.7499 1.83813 9.9998 1.83813C9.24966 1.83813 8.53024 2.13613 7.9998 2.66656L3.66647 6.99989C2.87082 7.79554 2.42383 8.87468 2.42383 9.99989C2.42383 11.1251 2.87082 12.2042 3.66647 12.9999C4.46212 13.7955 5.54125 14.2425 6.66647 14.2425C7.79169 14.2425 8.87082 13.7955 9.66647 12.9999L13.9998 8.66656" stroke="#666666" stroke-linecap="round" stroke-linejoin="round"/>
</svg>
