<svg width="32" height="32" viewBox="0 0 32 32" fill="none" xmlns="http://www.w3.org/2000/svg">
<g id="tabler-icon-report-search">
<path id="Vector" d="M10.6666 6.66667H7.99992C7.29267 6.66667 6.6144 6.94762 6.1143 7.44772C5.6142 7.94781 5.33325 8.62609 5.33325 9.33333V25.3333C5.33325 26.0406 5.6142 26.7189 6.1143 27.219C6.6144 27.719 7.29267 28 7.99992 28H15.5959M10.6666 6.66667C10.6666 5.95942 10.9475 5.28115 11.4476 4.78105C11.9477 4.28095 12.626 4 13.3333 4H15.9999C16.7072 4 17.3854 4.28095 17.8855 4.78105C18.3856 5.28115 18.6666 5.95942 18.6666 6.66667M10.6666 6.66667C10.6666 7.37391 10.9475 8.05219 11.4476 8.55229C11.9477 9.05238 12.626 9.33333 13.3333 9.33333H15.9999C16.7072 9.33333 17.3854 9.05238 17.8855 8.55229C18.3856 8.05219 18.6666 7.37391 18.6666 6.66667M23.9999 16V9.33333C23.9999 8.62609 23.719 7.94781 23.2189 7.44772C22.7188 6.94762 22.0405 6.66667 21.3333 6.66667H18.6666M10.6666 14.6667H15.9999M10.6666 20H14.6666M24.6666 26L27.9999 29.3333M18.6666 23.3333C18.6666 24.2174 19.0178 25.0652 19.6429 25.6904C20.268 26.3155 21.1159 26.6667 21.9999 26.6667C22.884 26.6667 23.7318 26.3155 24.3569 25.6904C24.9821 25.0652 25.3333 24.2174 25.3333 23.3333C25.3333 22.4493 24.9821 21.6014 24.3569 20.9763C23.7318 20.3512 22.884 20 21.9999 20C21.1159 20 20.268 20.3512 19.6429 20.9763C19.0178 21.6014 18.6666 22.4493 18.6666 23.3333Z" stroke="black" stroke-width="2" stroke-linecap="round" stroke-linejoin="round"/>
</g>
</svg>
