<?xml version="1.0" encoding="UTF-8"?>
<svg width="1200pt" height="1200pt" version="1.1" viewBox="0 0 1200 1200" xmlns="http://www.w3.org/2000/svg">
 <g>
  <path d="m166.67 0c-36.816 0-66.672 29.844-66.672 66.672v1133.3h133.33v-1133.3c0-36.828-29.844-66.672-66.66-66.672z"/>
  <path d="m700 150c-116.66 0-166.67-83.328-400-83.328v500c233.33 0 283.33 83.34 400 83.34 133.33 0 100.01-133.33 400.01-50.004v-500.02c-300-83.328-264.34 50.004-400.01 50.004zm0 416.66c-27.602 0-49.992-22.414-49.992-50.004 0-27.602 22.391-50.004 49.992-50.004 27.613 0 50.004 22.402 50.004 50.004 0 27.586-22.391 50.004-50.004 50.004zm33.336-166.67h-66.672l-16.668-183.34h99.996z"/>
 </g>
</svg>
