<svg width="16" height="16" viewBox="0 0 16 16" fill="none" xmlns="http://www.w3.org/2000/svg">
<g id="tabler-icon-flag-off">
<path id="Vector" d="M3.33333 3.33333V14M5.09399 2.43001C5.61531 2.3391 6.15077 2.37361 6.6561 2.5307C7.16142 2.68778 7.62209 2.96291 7.99999 3.33334C8.62309 3.9441 9.46082 4.2862 10.3333 4.2862C11.2058 4.2862 12.0436 3.94409 12.6667 3.33333V9.33333C12.5513 9.446 12.4307 9.54864 12.304 9.64198M3.33333 9.33331C3.95643 8.72255 4.79416 8.38045 5.66667 8.38045C6.53918 8.38045 7.3769 8.72255 8 9.33331C8.61209 9.93486 9.43319 10.2762 10.2913 10.286M2 2L14 14" stroke="black" stroke-linecap="round" stroke-linejoin="round"/>
</g>
</svg>
