<svg width="19" height="19" viewBox="0 0 19 19" fill="none" xmlns="http://www.w3.org/2000/svg">
<path id="Vector" d="M16.8889 1.9H15.8333V0.95C15.8333 0.4275 15.3583 0 14.7778 0C14.1972 0 13.7222 0.4275 13.7222 0.95V1.9H5.27778V0.95C5.27778 0.4275 4.80278 0 4.22222 0C3.64167 0 3.16667 0.4275 3.16667 0.95V1.9H2.11111C0.939444 1.9 0.0105555 2.755 0.0105555 3.8L0 17.1C0 18.145 0.939444 19 2.11111 19H16.8889C18.05 19 19 18.145 19 17.1V3.8C19 2.755 18.05 1.9 16.8889 1.9ZM16.8889 16.15C16.8889 16.6725 16.4139 17.1 15.8333 17.1H3.16667C2.58611 17.1 2.11111 16.6725 2.11111 16.15V6.65H16.8889V16.15ZM4.22222 8.55H6.33333V10.45H4.22222V8.55ZM8.44444 8.55H10.5556V10.45H8.44444V8.55ZM12.6667 8.55H14.7778V10.45H12.6667V8.55Z" fill="#515460" fill-opacity="0.79"/>
</svg>
