<svg width="24" height="24" viewBox="0 0 24 24" fill="none" xmlns="http://www.w3.org/2000/svg">
<g id="tabler-icon-edit-circle">
<path id="Vector" d="M15.9999 5L18.9999 8M8.99992 7.07001C7.24571 7.31995 5.65156 8.22585 4.53904 9.60499C3.42651 10.9841 2.87841 12.7339 3.00528 14.5012C3.13216 16.2686 3.92457 17.9221 5.22269 19.1282C6.5208 20.3343 8.228 21.0032 9.99992 21C11.6833 21.0002 13.3104 20.3937 14.583 19.2918C15.8556 18.1898 16.6884 16.6661 16.9289 15M11.9999 15L20.3849 6.58499C20.7787 6.19114 21 5.65697 21 5.09998C21 4.543 20.7787 4.00883 20.3849 3.61498C19.991 3.22114 19.4569 2.99988 18.8999 2.99988C18.3429 2.99988 17.8087 3.22114 17.4149 3.61498L8.99988 12V15H11.9999Z" stroke="black" stroke-width="2" stroke-linecap="round" stroke-linejoin="round"/>
</g>
</svg>
