<svg width="16" height="16" viewBox="0 0 16 16" fill="none" xmlns="http://www.w3.org/2000/svg">
<g id="tabler-icon-alert-triangle">
<path id="Vector" d="M7.99984 5.99996V8.66663M7.99984 10.6666H8.0065M6.90849 2.39392L1.50449 11.4166C1.39309 11.6095 1.33414 11.8282 1.3335 12.051C1.33286 12.2738 1.39056 12.4929 1.50086 12.6864C1.61115 12.88 1.7702 13.0413 1.96219 13.1543C2.15417 13.2673 2.3724 13.3281 2.59516 13.3306H13.4045C13.6272 13.328 13.8453 13.2672 14.0372 13.1542C14.2291 13.0413 14.388 12.88 14.4983 12.6866C14.6086 12.4931 14.6663 12.2742 14.6658 12.0515C14.6652 11.8288 14.6064 11.6102 14.4952 11.4173L9.09116 2.39326C8.97746 2.20559 8.8173 2.05042 8.62613 1.94272C8.43496 1.83502 8.21925 1.77844 7.99983 1.77844C7.78041 1.77844 7.5647 1.83502 7.37353 1.94272C7.18236 2.05042 7.02219 2.20559 6.90849 2.39326V2.39392Z" stroke="black" stroke-linecap="round" stroke-linejoin="round"/>
</g>
</svg>
