<svg width="14" height="19" viewBox="0 0 14 19" fill="none" xmlns="http://www.w3.org/2000/svg">
<path d="M4.87528 7.43047H5.67885C5.89197 7.43047 6.09636 7.33565 6.24706 7.16686C6.39776 6.99808 6.48242 6.76916 6.48242 6.53047C6.48242 6.29177 6.39776 6.06286 6.24706 5.89407C6.09636 5.72529 5.89197 5.63047 5.67885 5.63047H4.87528C4.66216 5.63047 4.45777 5.72529 4.30707 5.89407C4.15637 6.06286 4.07171 6.29177 4.07171 6.53047C4.07171 6.76916 4.15637 6.99808 4.30707 7.16686C4.45777 7.33565 4.66216 7.43047 4.87528 7.43047ZM4.87528 9.23047C4.66216 9.23047 4.45777 9.32529 4.30707 9.49407C4.15637 9.66286 4.07171 9.89177 4.07171 10.1305C4.07171 10.3692 4.15637 10.5981 4.30707 10.7669C4.45777 10.9356 4.66216 11.0305 4.87528 11.0305H9.69671C9.90983 11.0305 10.1142 10.9356 10.2649 10.7669C10.4156 10.5981 10.5003 10.3692 10.5003 10.1305C10.5003 9.89177 10.4156 9.66286 10.2649 9.49407C10.1142 9.32529 9.90983 9.23047 9.69671 9.23047H4.87528ZM13.7146 6.47647C13.7062 6.39379 13.69 6.31234 13.6664 6.23347V6.15247C13.6277 6.05993 13.5762 5.97487 13.5137 5.90047L8.69224 0.500469C8.62582 0.430463 8.54987 0.372742 8.46724 0.329469C8.44326 0.325653 8.41891 0.325653 8.39492 0.329469C8.31329 0.277036 8.22314 0.243379 8.12974 0.230469H3.26814C2.62877 0.230469 2.0156 0.514932 1.5635 1.02128C1.11141 1.52763 0.857422 2.21438 0.857422 2.93047V15.5305C0.857422 16.2466 1.11141 16.9333 1.5635 17.4397C2.0156 17.946 2.62877 18.2305 3.26814 18.2305H11.3039C11.9432 18.2305 12.5564 17.946 13.0085 17.4397C13.4606 16.9333 13.7146 16.2466 13.7146 15.5305V6.53047C13.7146 6.53047 13.7146 6.53047 13.7146 6.47647ZM8.89314 3.29947L10.9744 5.63047H9.69671C9.48359 5.63047 9.2792 5.53565 9.1285 5.36686C8.9778 5.19808 8.89314 4.96916 8.89314 4.73047V3.29947ZM12.1074 15.5305C12.1074 15.7692 12.0228 15.9981 11.8721 16.1669C11.7214 16.3356 11.517 16.4305 11.3039 16.4305H3.26814C3.05502 16.4305 2.85062 16.3356 2.69993 16.1669C2.54923 15.9981 2.46456 15.7692 2.46456 15.5305V2.93047C2.46456 2.69177 2.54923 2.46286 2.69993 2.29407C2.85062 2.12529 3.05502 2.03047 3.26814 2.03047H7.28599V4.73047C7.28599 5.44655 7.53998 6.13331 7.99207 6.63966C8.44417 7.14601 9.05735 7.43047 9.69671 7.43047H12.1074V15.5305ZM9.69671 12.8305H4.87528C4.66216 12.8305 4.45777 12.9253 4.30707 13.0941C4.15637 13.2629 4.07171 13.4918 4.07171 13.7305C4.07171 13.9692 4.15637 14.1981 4.30707 14.3669C4.45777 14.5356 4.66216 14.6305 4.87528 14.6305H9.69671C9.90983 14.6305 10.1142 14.5356 10.2649 14.3669C10.4156 14.1981 10.5003 13.9692 10.5003 13.7305C10.5003 13.4918 10.4156 13.2629 10.2649 13.0941C10.1142 12.9253 9.90983 12.8305 9.69671 12.8305Z" fill="#515460" fill-opacity="0.65"/>
</svg>
