<svg width="18" height="18" viewBox="0 0 18 18" fill="none" xmlns="http://www.w3.org/2000/svg">
<path d="M8.16699 13.9998H9.83366V12.3332H8.16699V13.9998ZM9.00033 0.666504C7.90598 0.666504 6.82234 0.882052 5.8113 1.30084C4.80025 1.71963 3.88159 2.33346 3.10777 3.10728C1.54497 4.67008 0.666992 6.7897 0.666992 8.99984C0.666992 11.21 1.54497 13.3296 3.10777 14.8924C3.88159 15.6662 4.80025 16.28 5.8113 16.6988C6.82234 17.1176 7.90598 17.3332 9.00033 17.3332C11.2105 17.3332 13.3301 16.4552 14.8929 14.8924C16.4557 13.3296 17.3337 11.21 17.3337 8.99984C17.3337 7.90549 17.1181 6.82186 16.6993 5.81081C16.2805 4.79976 15.6667 3.8811 14.8929 3.10728C14.1191 2.33346 13.2004 1.71963 12.1894 1.30084C11.1783 0.882052 10.0947 0.666504 9.00033 0.666504ZM9.00033 15.6665C5.32533 15.6665 2.33366 12.6748 2.33366 8.99984C2.33366 5.32484 5.32533 2.33317 9.00033 2.33317C12.6753 2.33317 15.667 5.32484 15.667 8.99984C15.667 12.6748 12.6753 15.6665 9.00033 15.6665ZM9.00033 3.99984C8.11627 3.99984 7.26842 4.35103 6.6433 4.97615C6.01818 5.60127 5.66699 6.44912 5.66699 7.33317H7.33366C7.33366 6.89114 7.50925 6.46722 7.82181 6.15466C8.13438 5.8421 8.5583 5.6665 9.00033 5.6665C9.44235 5.6665 9.86628 5.8421 10.1788 6.15466C10.4914 6.46722 10.667 6.89114 10.667 7.33317C10.667 8.99984 8.16699 8.7915 8.16699 11.4998H9.83366C9.83366 9.62484 12.3337 9.4165 12.3337 7.33317C12.3337 6.44912 11.9825 5.60127 11.3573 4.97615C10.7322 4.35103 9.88438 3.99984 9.00033 3.99984Z" fill="#0061A4"/>
</svg>
