<svg width="11" height="14" viewBox="0 0 11 14" fill="none" xmlns="http://www.w3.org/2000/svg">
<path id="Vector" d="M7 1V3.66667C7 3.84348 7.07024 4.01305 7.19526 4.13807C7.32029 4.2631 7.48986 4.33333 7.66667 4.33333H10.3333M7 1H2.33333C1.97971 1 1.64057 1.14048 1.39052 1.39052C1.14048 1.64057 1 1.97971 1 2.33333V11.6667C1 12.0203 1.14048 12.3594 1.39052 12.6095C1.64057 12.8595 1.97971 13 2.33333 13H9C9.35362 13 9.69276 12.8595 9.94281 12.6095C10.1929 12.3594 10.3333 12.0203 10.3333 11.6667V4.33333M7 1L10.3333 4.33333M3.66667 10.3333H7.66667M3.66667 7.66667H7.66667" stroke="black" stroke-linecap="round" stroke-linejoin="round"/>
</svg>
