<svg width="24" height="24" viewBox="0 0 24 24" fill="none" xmlns="http://www.w3.org/2000/svg">
<g id="tabler-icon-search" clip-path="url(#clip0_2074_328)">
<path id="Vector" d="M21 25L15 19M3 14C3 14.9193 3.18106 15.8295 3.53284 16.6788C3.88463 17.5281 4.40024 18.2997 5.05025 18.9497C5.70026 19.5998 6.47194 20.1154 7.32122 20.4672C8.1705 20.8189 9.08075 21 10 21C10.9193 21 11.8295 20.8189 12.6788 20.4672C13.5281 20.1154 14.2997 19.5998 14.9497 18.9497C15.5998 18.2997 16.1154 17.5281 16.4672 16.6788C16.8189 15.8295 17 14.9193 17 14C17 13.0807 16.8189 12.1705 16.4672 11.3212C16.1154 10.4719 15.5998 9.70026 14.9497 9.05025C14.2997 8.40024 13.5281 7.88463 12.6788 7.53284C11.8295 7.18106 10.9193 7 10 7C9.08075 7 8.1705 7.18106 7.32122 7.53284C6.47194 7.88463 5.70026 8.40024 5.05025 9.05025C4.40024 9.70026 3.88463 10.4719 3.53284 11.3212C3.18106 12.1705 3 13.0807 3 14Z" stroke="#D9D9D9" stroke-width="2" stroke-linecap="round" stroke-linejoin="round"/>
</g>
<defs>
<clipPath id="clip0_2074_328">
<rect width="24" height="24" fill="white"/>
</clipPath>
</defs>
</svg>
